# Blender v2.76 (sub 0) OBJ File: ''
# www.blender.org
g PortalView
v 0.555570 -0.831469 0.000000
v 0.980785 -0.195090 0.000000
v 0.923879 -0.382683 0.000000
v 0.382683 -0.923879 0.000000
v 0.195090 -0.980785 0.000000
v 0.831470 -0.555570 0.000000
v 0.707107 -0.707106 0.000000
v 0.000000 -1.000000 0.000000
v 1.000000 0.000000 0.000000
v 0.980785 0.195090 0.000000
v 0.923880 0.382684 0.000000
v 0.831470 0.555570 0.000000
v 0.707107 0.707107 0.000000
v 0.555570 0.831470 0.000000
v 0.382683 0.923880 0.000000
v 0.195090 0.980786 0.000000
v -0.000000 1.000000 0.000000
v -0.195091 0.980785 0.000000
v -0.382684 0.923880 0.000000
v -0.555571 0.831470 0.000000
v -0.707107 0.707107 0.000000
v -0.831470 0.555570 0.000000
v -0.923880 0.382683 0.000000
v -0.980785 0.195090 0.000000
v -1.000000 -0.000001 0.000000
v -0.980785 -0.195091 0.000000
v -0.923879 -0.382684 0.000000
v -0.831469 -0.555571 0.000000
v -0.707106 -0.707107 0.000000
v -0.555569 -0.831470 0.000000
v -0.382682 -0.923880 0.000000
v -0.195089 -0.980785 0.000000
vt 0.450764 0.999900
vt 0.354185 0.980689
vt 0.263209 0.943006
vt 0.943006 0.736791
vt 0.888298 0.818668
vt 0.645816 0.980689
vt 0.181332 0.888298
vt 0.111702 0.818668
vt 0.549236 0.999900
vt 0.818668 0.888298
vt 0.736791 0.943006
vt 0.056994 0.263209
vt 0.736791 0.056994
vt 0.056995 0.736793
vt 0.019311 0.645815
vt 0.000100 0.549236
vt 0.000100 0.450764
vt 0.019311 0.354185
vt 0.111702 0.181332
vt 0.354185 0.019311
vt 0.181332 0.111702
vt 0.263208 0.056994
vt 0.450764 0.000100
vt 0.549236 0.000100
vt 0.645815 0.019311
vt 0.818667 0.111702
vt 0.980689 0.354184
vt 0.888297 0.181332
vt 0.943005 0.263208
vt 0.999900 0.450764
vt 0.999900 0.549236
vt 0.980689 0.645816
vn -0.000000 0.000000 1.000000
s off
f 18/1/1 19/2/1 20/3/1
f 12/4/1 13/5/1 16/6/1
f 20/3/1 21/7/1 22/8/1
f 16/6/1 17/9/1 20/3/1
f 14/10/1 15/11/1 16/6/1
f 28/12/1 1/13/1 20/3/1
f 22/8/1 23/14/1 24/15/1
f 24/15/1 25/16/1 28/12/1
f 26/17/1 27/18/1 28/12/1
f 28/12/1 29/19/1 32/20/1
f 30/21/1 31/22/1 32/20/1
f 32/20/1 8/23/1 5/24/1
f 5/24/1 4/25/1 1/13/1
f 1/13/1 7/26/1 2/27/1
f 6/28/1 3/29/1 2/27/1
f 2/27/1 9/30/1 10/31/1
f 10/31/1 11/32/1 2/27/1
f 13/5/1 14/10/1 16/6/1
f 17/9/1 18/1/1 20/3/1
f 20/3/1 22/8/1 24/15/1
f 25/16/1 26/17/1 28/12/1
f 29/19/1 30/21/1 32/20/1
f 32/20/1 5/24/1 1/13/1
f 7/26/1 6/28/1 2/27/1
f 2/27/1 11/32/1 12/4/1
f 12/4/1 16/6/1 20/3/1
f 20/3/1 24/15/1 28/12/1
f 28/12/1 32/20/1 1/13/1
f 1/13/1 2/27/1 12/4/1
f 12/4/1 20/3/1 1/13/1
